<svg width="200" height="165" viewBox="0 0 200 165" fill="none" xmlns="http://www.w3.org/2000/svg">
<path d="M0 115.317H20.7606C20.7606 135.638 32.7318 142.72 50.7084 142.72C67.3925 142.72 79.8012 135.638 79.8012 121.446C79.8012 107.255 65.2548 103.042 48.7795 98.8278C27.1837 93.0729 2.14765 87.327 2.14765 58.7664C2.14765 34.4195 19.6868 20.6202 49.6346 20.6202C79.5824 20.6202 99.0505 35.3816 99.0505 64.5034H78.2998C78.2998 45.9114 67.3925 38.0631 49.6247 38.0631C31.8568 38.0631 22.8884 45.3324 22.8884 58.7575C22.8884 73.893 38.9361 77.9196 56.4753 82.3382C77.6535 87.71 100.771 93.8213 100.771 121.046C100.771 146.363 81.5014 160.528 50.7084 160.528C19.9155 160.528 0 145.58 0 115.3V115.317Z" fill="#36454F"/>
<path d="M148.446 29.8761H148.029C148.387 32.5487 148.576 35.3548 148.576 38.2857V42.1164C148.576 44.1742 148.466 46.1698 148.248 48.0851C164.395 48.29 179.259 54.4279 179.259 77.394V82.3916C179.259 102.712 165.359 111.326 147.383 111.326H104.161V165H125.14V129.357H148.446C177.967 129.357 200 113.251 200 82.5787V77.394C200 46.731 177.967 29.8761 148.446 29.8761Z" fill="#36454F"/>
<path d="M93.3034 0.0505371H55.6599L68.685 18.2684H90.9768C109.172 18.2684 122.913 21.9565 122.913 37.3236V41.965C122.913 54.1072 117.564 61.7774 108.993 65.7773C104.002 68.3341 97.7578 69.4476 90.9768 69.4476H78.1406L90.8078 87.3448L104.618 106.587H128.213L110.962 83.3538C113.994 82.552 116.848 81.5988 119.523 80.316C134.328 74.08 143.604 61.136 143.604 42.1164V38.2858C143.604 10.3755 123.977 0.0505371 93.3034 0.0505371Z" fill="#FF6600"/>
</svg>
